<svg width="60" height="60" viewBox="0 0 60 60" fill="none" xmlns="http://www.w3.org/2000/svg">
  <!-- BOA Icon - Compact version for sidebar -->
  
  <!-- Background Circle -->
  <circle cx="30" cy="30" r="28" fill="url(#bgGradient)"/>
  
  <!-- Cloud -->
  <path d="M18 28 C18 28, 12 24, 12 20 C12 16, 16 14, 20 16 C20 12, 24 10, 28 12 C32 10, 36 12, 36 16 C40 14, 44 16, 44 20 C44 24, 36 28, 18 28 Z" 
        fill="white" opacity="0.4"/>
  
  <!-- Airplane -->
  <path d="M15 38 L28 25 L35 28 L26 38 L35 42 L32 47 L22 42 L15 47 L12 44 L15 38 Z" 
        fill="white"/>
  
  <!-- Gradient Definitions -->
  <defs>
    <linearGradient id="bgGradient" x1="0%" y1="0%" x2="100%" y2="100%">
      <stop offset="0%" style="stop-color:#4299E1;stop-opacity:1" />
      <stop offset="50%" style="stop-color:#3182CE;stop-opacity:1" />
      <stop offset="100%" style="stop-color:#2C5282;stop-opacity:1" />
    </linearGradient>
  </defs>
</svg>
